<svg xmlns="http://www.w3.org/2000/svg" viewBox="0 0 90 90"><defs><style>.cls-1{fill:#3b4051;}.cls-2{fill:#c34293;}</style></defs><g id="Layer_2" data-name="Layer 2"><g id="OBJECTS"><path class="cls-1" d="M35.88,81.65l-27-27,9.87-36.84L55.62,8l27,27L72.72,71.77ZM12.27,53.78l24.51,24.5,33.48-9,9-33.48L54.72,11.33l-33.48,9Z"/><circle class="cls-1" cx="55" cy="10" r="10"/><path class="cls-2" d="M54.84,12.32a2.68,2.68,0,1,1,1.9-4.57,2.68,2.68,0,0,1-1.9,4.57Z"/><circle class="cls-1" cx="10" cy="54" r="10"/><path class="cls-2" d="M10.26,56.91a2.69,2.69,0,1,1,1.89-.79A2.68,2.68,0,0,1,10.26,56.91Z"/><circle class="cls-1" cx="20" cy="19" r="10"/><path class="cls-2" d="M20,21.75a2.69,2.69,0,1,1,1.9-.79A2.68,2.68,0,0,1,20,21.75Z"/><circle class="cls-1" cx="45" cy="45" r="13"/><circle class="cls-1" cx="71" cy="71" r="10"/><path class="cls-2" d="M71.49,73.22a2.68,2.68,0,1,1,1.89-.78A2.68,2.68,0,0,1,71.49,73.22Z"/><path class="cls-1" d="M54,19.76a26.12,26.12,0,0,0-3.13,1.06c-1,.4-2,.85-2.89,1.31a49.69,49.69,0,0,0-5.34,3.06,63.22,63.22,0,0,0-9.31,7.47,53.88,53.88,0,0,0-7.67,9.12,44.21,44.21,0,0,0-3,5.36c-.22.48-.43,1-.65,1.45s-.41,1-.59,1.51a21.9,21.9,0,0,0-1,3.24l-9.29-9.29a22.26,22.26,0,0,0,3.24-1c.51-.18,1-.4,1.5-.59l1.45-.65a43.46,43.46,0,0,0,5.36-3,53.56,53.56,0,0,0,9.12-7.67,63.94,63.94,0,0,0,7.48-9.31,51.44,51.44,0,0,0,3.06-5.34c.46-.94.9-1.89,1.3-2.89a25.7,25.7,0,0,0,1.07-3.14Z"/><circle class="cls-1" cx="80" cy="35" r="10"/><path class="cls-2" d="M80.12,37.6a2.68,2.68,0,0,1,0-5.36A2.64,2.64,0,0,1,82,33a2.68,2.68,0,0,1-1.89,4.57Z"/><circle class="cls-1" cx="36" cy="80" r="10"/><path class="cls-2" d="M35.54,82.18a2.68,2.68,0,1,1,1.89-.78A2.67,2.67,0,0,1,35.54,82.18Z"/><path class="cls-1" d="M79.29,45a24,24,0,0,0-3.13,1.06c-1,.4-2,.84-2.9,1.3a50.27,50.27,0,0,0-5.33,3.06,63.41,63.41,0,0,0-9.31,7.48A53,53,0,0,0,51,67.06a42.91,42.91,0,0,0-3,5.36c-.23.48-.44,1-.65,1.45s-.41,1-.6,1.51a23,23,0,0,0-1,3.23l-9.28-9.28a23.44,23.44,0,0,0,3.23-1c.52-.18,1-.39,1.51-.59s1-.42,1.45-.65a42.91,42.91,0,0,0,5.36-3,53,53,0,0,0,9.12-7.67,63.41,63.41,0,0,0,7.48-9.31,48.53,48.53,0,0,0,3-5.33c.47-.94.91-1.9,1.31-2.9A26.12,26.12,0,0,0,70,35.75Z"/><path class="cls-2" d="M21.85,17.24a38.63,38.63,0,0,0,5,7.68A64.57,64.57,0,0,0,33,31.46,45.6,45.6,0,0,0,40.22,37a38.79,38.79,0,0,0,4.14,2.21c.74.32,1.48.64,2.26.92a19.47,19.47,0,0,0,2.45.73L41.65,48.2a17.67,17.67,0,0,0-.72-2.46c-.27-.78-.58-1.52-.91-2.26a38.83,38.83,0,0,0-2.19-4.15,45.51,45.51,0,0,0-5.47-7.22,65.69,65.69,0,0,0-6.52-6.18,38.75,38.75,0,0,0-7.66-5Z"/><path class="cls-2" d="M48.91,40.94a27.16,27.16,0,0,0,1.79,4.69A42.79,42.79,0,0,0,53,49.79a50.75,50.75,0,0,0,5.64,7.31,64.94,64.94,0,0,0,6.67,6.28,39.49,39.49,0,0,0,7.84,5.11l-3.73,3.75a39.35,39.35,0,0,0-5.13-7.83A63.9,63.9,0,0,0,58,57.77a50.08,50.08,0,0,0-7.32-5.63,44,44,0,0,0-4.17-2.3,27.25,27.25,0,0,0-4.7-1.78Z"/><path class="cls-2" d="M45.42,49.93a5.36,5.36,0,1,1,3.79-1.57A5.32,5.32,0,0,1,45.42,49.93Z"/></g></g></svg>