<svg xmlns="http://www.w3.org/2000/svg" viewBox="0 0 352.48 90"><g id="fd6772dd-7739-4f4a-80c6-5eb154922d6d" data-name="Layer 2"><g id="bcafddbe-5837-4953-bf72-32f29ca0b2d2" data-name="OBJECTS"><path d="M104.4,40.94V13.47h3.72l1.6,5.35V40.94Zm19,0L107.1,19.88l1-6.41,16.33,21.06Zm0,0-1.53-5.16V13.47h5.32V40.94Z" fill="#3b4051"/><path d="M132.81,40.94V13.47h5.32V40.94Zm3.91-22.78V13.47h15v4.69Zm0,11.06V24.65H150.6v4.57Zm0,11.72V36.25h15.2v4.69Z" fill="#3b4051"/><path d="M154.31,40.94l10.31-14.69,3.91,2.66-8.2,12Zm19.85,0-7.85-12.23h-.79l-10.7-15.24h6.33L169,25h.78l10.63,15.94Zm-4.14-13-3.91-2.66,7.78-11.76h6.05Z" fill="#3b4051"/><path d="M194.13,41.37a11.5,11.5,0,0,1-5.78-1.44,10.71,10.71,0,0,1-4-4,11,11,0,0,1-1.46-5.67V13.47h5.35v17a6.12,6.12,0,0,0,.78,3.16,5.49,5.49,0,0,0,2.11,2.06,6.23,6.23,0,0,0,3,.72,5.89,5.89,0,0,0,3-.72,5.36,5.36,0,0,0,2-2.06,6.12,6.12,0,0,0,.77-3.12v-17h5.35V30.35A11.14,11.14,0,0,1,203.8,36a10.63,10.63,0,0,1-3.92,3.93A11.34,11.34,0,0,1,194.13,41.37Z" fill="#3b4051"/><path d="M218.09,41.37a13.06,13.06,0,0,1-5.65-1.13,12.76,12.76,0,0,1-4.28-3.44l3.52-3.52a9.28,9.28,0,0,0,2.83,2.48,7.88,7.88,0,0,0,3.89.88,5.75,5.75,0,0,0,3.28-.82,2.57,2.57,0,0,0,1.21-2.26,2.94,2.94,0,0,0-.7-2,5.56,5.56,0,0,0-1.86-1.3,21.08,21.08,0,0,0-2.54-1c-.92-.3-1.84-.65-2.75-1a11.71,11.71,0,0,1-2.54-1.48,6.55,6.55,0,0,1-1.86-2.27,7.94,7.94,0,0,1-.68-3.52,7.34,7.34,0,0,1,1.21-4.26A7.77,7.77,0,0,1,214.49,14a11.57,11.57,0,0,1,4.77-.94,12.05,12.05,0,0,1,5.1,1.05,10.55,10.55,0,0,1,3.69,2.74l-3.51,3.52a8.54,8.54,0,0,0-2.49-2,6.47,6.47,0,0,0-2.87-.62,5.06,5.06,0,0,0-2.89.72,2.31,2.31,0,0,0-1.06,2,2.41,2.41,0,0,0,.71,1.82,6.52,6.52,0,0,0,1.85,1.21,26.35,26.35,0,0,0,2.56,1c.94.31,1.87.67,2.78,1.07a11.94,11.94,0,0,1,2.52,1.53,6.63,6.63,0,0,1,1.86,2.38,8.32,8.32,0,0,1,.7,3.62,7.37,7.37,0,0,1-2.7,6C223.72,40.64,221.24,41.37,218.09,41.37Z" fill="#3b4051"/><path d="M239.62,41.37A13.06,13.06,0,0,1,234,40.24a12.86,12.86,0,0,1-4.28-3.44l3.52-3.52A9.4,9.4,0,0,0,236,35.76a7.91,7.91,0,0,0,3.89.88,5.79,5.79,0,0,0,3.29-.82,2.59,2.59,0,0,0,1.21-2.26,3,3,0,0,0-.71-2,5.42,5.42,0,0,0-1.85-1.3,22.46,22.46,0,0,0-2.54-1c-.93-.3-1.85-.65-2.76-1A11.71,11.71,0,0,1,234,26.72a6.41,6.41,0,0,1-1.85-2.27,7.79,7.79,0,0,1-.69-3.52,7.42,7.42,0,0,1,1.21-4.26A7.77,7.77,0,0,1,236,14a11.57,11.57,0,0,1,4.77-.94,12.05,12.05,0,0,1,5.1,1.05,10.5,10.5,0,0,1,3.7,2.74l-3.52,3.52a8.64,8.64,0,0,0-2.48-2,6.55,6.55,0,0,0-2.88-.62,5.09,5.09,0,0,0-2.89.72,2.3,2.3,0,0,0-1,2,2.4,2.4,0,0,0,.7,1.82,6.44,6.44,0,0,0,1.86,1.21,25.38,25.38,0,0,0,2.56,1c.93.31,1.86.67,2.77,1.07a11.94,11.94,0,0,1,2.52,1.53A6.63,6.63,0,0,1,249,29.51a8.32,8.32,0,0,1,.7,3.62,7.39,7.39,0,0,1-2.69,6A11.37,11.37,0,0,1,239.62,41.37Z" fill="#c34293"/><path d="M261,30.35,250.37,13.47h6.17L264.79,27h-3.52l8.25-13.56h6.05L264.83,30.35Zm-.67,10.59V27.54h5.32v13.4Z" fill="#c34293"/><path d="M279.05,40.94V13.47h3.71l1.61,5.35V40.94Zm19,0L281.75,19.88l1-6.41L299.1,34.53Zm0,0-1.52-5.16V13.47h5.32V40.94Z" fill="#c34293"/><path d="M307.46,40.94V13.47h5.32V40.94Zm3.91-22.78V13.47h15v4.69Zm0,11.06V24.65h13.87v4.57Zm0,11.72V36.25h15.2v4.69Z" fill="#c34293"/><path d="M331,40.94V13.47h5.31V40.94Zm3.91-11.45V25.31h6.33a4.22,4.22,0,0,0,3-1,3.51,3.51,0,0,0,1.06-2.71,3.7,3.7,0,0,0-1.06-2.72,4,4,0,0,0-3-1.07h-6.37V13.47h6.87a10.09,10.09,0,0,1,4.63,1,8,8,0,0,1,3.13,11.18,7.64,7.64,0,0,1-3.14,2.8,10.59,10.59,0,0,1-4.73,1ZM346,40.94l-9.1-11.88,4.92-1.52,10.63,13.4Z" fill="#c34293"/><path d="M125.19,64V56.83h2.28a4.71,4.71,0,0,1,1.14.13,2.32,2.32,0,0,1,.79.37,1.53,1.53,0,0,1,.45.59,1.94,1.94,0,0,1,.15.78,1.7,1.7,0,0,1-.08.51,1.58,1.58,0,0,1-.25.46,2.14,2.14,0,0,1-.42.37,2.78,2.78,0,0,1-.6.28,2.21,2.21,0,0,1,1.19.56,1.46,1.46,0,0,1,.4,1.08,2.05,2.05,0,0,1-.17.83,1.69,1.69,0,0,1-.49.64,2.29,2.29,0,0,1-.79.42,3.5,3.5,0,0,1-1.07.15Zm1-4h1.28a2.5,2.5,0,0,0,.71-.09,1.47,1.47,0,0,0,.5-.25.9.9,0,0,0,.29-.38,1.35,1.35,0,0,0,.09-.5,1.09,1.09,0,0,0-.38-.93,2,2,0,0,0-1.18-.29h-1.31Zm0,.69v2.5h1.55a2.17,2.17,0,0,0,.71-.1,1.34,1.34,0,0,0,.49-.26,1,1,0,0,0,.28-.41,1.51,1.51,0,0,0,.09-.53,1.07,1.07,0,0,0-.39-.87,1.82,1.82,0,0,0-1.19-.33Z" fill="#c34293"/><path d="M138.07,56.83v.79h-3.44V60h2.79v.76h-2.79v2.45h3.44V64h-4.41V56.83Z" fill="#c34293"/><path d="M146.52,62.52a.2.2,0,0,1,.14.06L147,63a3,3,0,0,1-1.06.79,3.68,3.68,0,0,1-1.52.29,3.53,3.53,0,0,1-1.4-.27,3.18,3.18,0,0,1-1.08-.75,3.5,3.5,0,0,1-.69-1.16,4.38,4.38,0,0,1-.24-1.48,4.2,4.2,0,0,1,.26-1.49,3.49,3.49,0,0,1,.74-1.16,3.33,3.33,0,0,1,1.14-.75,3.83,3.83,0,0,1,1.46-.27A3.51,3.51,0,0,1,146,57a3.44,3.44,0,0,1,1,.66l-.32.45-.08.08a.23.23,0,0,1-.13,0,.22.22,0,0,1-.13,0l-.18-.12a1.53,1.53,0,0,0-.23-.15l-.32-.15a2.21,2.21,0,0,0-.43-.12,3.18,3.18,0,0,0-.57,0,2.77,2.77,0,0,0-1,.2,2.25,2.25,0,0,0-.82.57,2.51,2.51,0,0,0-.54.88,3.79,3.79,0,0,0,0,2.37,2.54,2.54,0,0,0,.53.89,2.13,2.13,0,0,0,.78.55,2.48,2.48,0,0,0,1,.19,5,5,0,0,0,.58,0,2.93,2.93,0,0,0,.47-.12,2,2,0,0,0,.41-.2,2.44,2.44,0,0,0,.37-.3A.25.25,0,0,1,146.52,62.52Z" fill="#c34293"/><path d="M157,60.42a4.14,4.14,0,0,1-.25,1.48,3.3,3.3,0,0,1-.72,1.15,3.13,3.13,0,0,1-1.12.76,4.12,4.12,0,0,1-2.88,0,3.13,3.13,0,0,1-1.12-.76,3.3,3.3,0,0,1-.72-1.15,4.51,4.51,0,0,1,0-3,3.44,3.44,0,0,1,.72-1.16A3.27,3.27,0,0,1,152,57a4,4,0,0,1,2.88,0,3.27,3.27,0,0,1,1.12.76,3.44,3.44,0,0,1,.72,1.16A4.14,4.14,0,0,1,157,60.42Zm-1,0a3.67,3.67,0,0,0-.18-1.19,2.46,2.46,0,0,0-.51-.88,2.27,2.27,0,0,0-.8-.56,2.86,2.86,0,0,0-2.1,0,2.27,2.27,0,0,0-.8.56,2.46,2.46,0,0,0-.51.88,3.67,3.67,0,0,0-.18,1.19,3.61,3.61,0,0,0,.18,1.18,2.5,2.5,0,0,0,.51.89,2.24,2.24,0,0,0,.8.55,3,3,0,0,0,2.1,0,2.24,2.24,0,0,0,.8-.55,2.5,2.5,0,0,0,.51-.89A3.61,3.61,0,0,0,156,60.42Z" fill="#c34293"/><path d="M164,61.66c0,.09.06.18.1.27l.1-.27c0-.08.08-.17.13-.26L166.7,57a.31.31,0,0,1,.14-.14.49.49,0,0,1,.2,0h.71V64h-.85V58.73a1.7,1.7,0,0,1,0-.22c0-.08,0-.16,0-.25l-2.45,4.48a.4.4,0,0,1-.35.23H164a.39.39,0,0,1-.35-.23l-2.51-4.49c0,.09,0,.17,0,.25a1.93,1.93,0,0,1,0,.23V64h-.85V56.83H161a.49.49,0,0,1,.2,0,.31.31,0,0,1,.14.14l2.47,4.41A2,2,0,0,1,164,61.66Z" fill="#c34293"/><path d="M175.91,56.83v.79h-3.44V60h2.79v.76h-2.79v2.45h3.44V64H171.5V56.83Z" fill="#c34293"/><path d="M184.3,61.32V64h-1V56.83h2.11a4.18,4.18,0,0,1,1.19.16,2.44,2.44,0,0,1,.83.45,1.82,1.82,0,0,1,.49.7,2.42,2.42,0,0,1,.16.91A2.47,2.47,0,0,1,188,60a2,2,0,0,1-.51.71,2.45,2.45,0,0,1-.84.47,3.71,3.71,0,0,1-1.15.17Zm0-.77h1.15a2.4,2.4,0,0,0,.74-.11,1.46,1.46,0,0,0,.53-.31,1.27,1.27,0,0,0,.32-.47,1.51,1.51,0,0,0,.11-.61,1.39,1.39,0,0,0-.42-1.07,1.88,1.88,0,0,0-1.28-.38H184.3Z" fill="#c34293"/><path d="M196.55,64h-.75a.31.31,0,0,1-.21-.07.4.4,0,0,1-.12-.16L194.8,62h-3.21l-.67,1.73a.45.45,0,0,1-.12.16.31.31,0,0,1-.21.07h-.75l2.86-7.17h1Zm-4.69-2.66h2.67l-1.12-2.92a5.86,5.86,0,0,1-.22-.67c0,.14-.07.26-.1.38s-.07.21-.11.3Z" fill="#c34293"/><path d="M200.52,61v3h-1V56.83h2a4.49,4.49,0,0,1,1.18.14,2.33,2.33,0,0,1,.82.4,1.54,1.54,0,0,1,.47.63,2,2,0,0,1,.16.82,2.08,2.08,0,0,1-.12.71,1.85,1.85,0,0,1-.35.59,2,2,0,0,1-.55.45,2.78,2.78,0,0,1-.75.28,1,1,0,0,1,.32.3L204.85,64H204a.44.44,0,0,1-.39-.21l-1.86-2.56a.48.48,0,0,0-.18-.17.78.78,0,0,0-.3-.05Zm0-.71h1a2.48,2.48,0,0,0,.75-.1,1.56,1.56,0,0,0,.54-.29,1.12,1.12,0,0,0,.32-.45,1.32,1.32,0,0,0,.11-.57,1.15,1.15,0,0,0-.42-1,2.09,2.09,0,0,0-1.26-.32h-1.06Z" fill="#c34293"/><path d="M212.52,56.83v.82H210.2V64h-1V57.65h-2.32v-.82Z" fill="#c34293"/><path d="M226.12,60.42a4.14,4.14,0,0,1-.25,1.48,3.3,3.3,0,0,1-.72,1.15,3.13,3.13,0,0,1-1.12.76,4.12,4.12,0,0,1-2.88,0,3.13,3.13,0,0,1-1.12-.76,3.3,3.3,0,0,1-.72-1.15,4.51,4.51,0,0,1,0-3,3.44,3.44,0,0,1,.72-1.16,3.27,3.27,0,0,1,1.12-.76A4,4,0,0,1,224,57a3.27,3.27,0,0,1,1.12.76,3.44,3.44,0,0,1,.72,1.16A4.14,4.14,0,0,1,226.12,60.42Zm-1,0a3.67,3.67,0,0,0-.18-1.19,2.46,2.46,0,0,0-.51-.88,2.27,2.27,0,0,0-.8-.56,2.86,2.86,0,0,0-2.1,0,2.27,2.27,0,0,0-.8.56,2.46,2.46,0,0,0-.51.88,3.67,3.67,0,0,0-.18,1.19,3.61,3.61,0,0,0,.18,1.18,2.5,2.5,0,0,0,.51.89,2.24,2.24,0,0,0,.8.55,3,3,0,0,0,2.1,0,2.24,2.24,0,0,0,.8-.55,2.5,2.5,0,0,0,.51-.89A3.61,3.61,0,0,0,225.13,60.42Z" fill="#c34293"/><path d="M233.86,56.83v.79h-3.44v2.51h2.94v.79h-2.94V64h-1V56.83Z" fill="#c34293"/><path d="M245.92,56.83v.82H243.6V64h-1V57.65h-2.32v-.82Z" fill="#c34293"/><path d="M254.75,64h-1V60.74h-3.86V64h-1V56.83h1V60h3.86v-3.2h1Z" fill="#c34293"/><path d="M262.91,56.83v.79h-3.44V60h2.79v.76h-2.79v2.45h3.44V64H258.5V56.83Z" fill="#c34293"/><path d="M267,56.87a.4.4,0,0,1,.14.13l4.15,5.4c0-.09,0-.17,0-.25V56.83h.85V64h-.49a.36.36,0,0,1-.19,0,.42.42,0,0,1-.16-.14l-4.14-5.39a1.93,1.93,0,0,1,0,.24,1.77,1.77,0,0,1,0,.22V64h-.85V56.83h.5A.41.41,0,0,1,267,56.87Z" fill="#c34293"/><path d="M280.28,56.83v.79h-3.44V60h2.79v.76h-2.79v2.45h3.44V64h-4.41V56.83Z" fill="#c34293"/><path d="M288.56,56.83v.82h-2.32V64h-1V57.65H283v-.82Z" fill="#c34293"/><path d="M290.78,56.83h.8a.38.38,0,0,1,.22.07.34.34,0,0,1,.11.17l1.48,5c0,.09.05.19.08.29l.06.33c0-.11,0-.22.07-.33a2.45,2.45,0,0,1,.08-.29l1.68-5a.36.36,0,0,1,.12-.16.32.32,0,0,1,.21-.08H296a.38.38,0,0,1,.22.07.34.34,0,0,1,.11.17L298,62c.06.18.11.38.16.6,0-.11,0-.22.05-.32a2.29,2.29,0,0,1,.07-.28l1.48-5a.32.32,0,0,1,.33-.24h.75L298.59,64h-.87l-1.82-5.47c0-.1-.07-.22-.1-.36,0,.07,0,.14,0,.2a1.42,1.42,0,0,0-.05.16L293.88,64H293Z" fill="#c34293"/><path d="M310.42,60.42a4.14,4.14,0,0,1-.25,1.48,3.3,3.3,0,0,1-.72,1.15,3.13,3.13,0,0,1-1.12.76,4.12,4.12,0,0,1-2.88,0,3.13,3.13,0,0,1-1.12-.76,3.3,3.3,0,0,1-.72-1.15,4.51,4.51,0,0,1,0-3,3.44,3.44,0,0,1,.72-1.16,3.27,3.27,0,0,1,1.12-.76,4,4,0,0,1,2.88,0,3.27,3.27,0,0,1,1.12.76,3.44,3.44,0,0,1,.72,1.16A4.14,4.14,0,0,1,310.42,60.42Zm-1,0a3.67,3.67,0,0,0-.18-1.19,2.46,2.46,0,0,0-.51-.88,2.27,2.27,0,0,0-.8-.56,2.77,2.77,0,0,0-1.05-.2,2.73,2.73,0,0,0-1.05.2,2.27,2.27,0,0,0-.8.56,2.46,2.46,0,0,0-.51.88,3.67,3.67,0,0,0-.18,1.19,3.61,3.61,0,0,0,.18,1.18,2.5,2.5,0,0,0,.51.89,2.24,2.24,0,0,0,.8.55,2.73,2.73,0,0,0,1.05.19,2.76,2.76,0,0,0,1.05-.19,2.24,2.24,0,0,0,.8-.55,2.5,2.5,0,0,0,.51-.89A3.61,3.61,0,0,0,309.43,60.42Z" fill="#c34293"/><path d="M314.81,61v3h-1V56.83h2a4.49,4.49,0,0,1,1.18.14,2.19,2.19,0,0,1,.81.4,1.48,1.48,0,0,1,.48.63,2,2,0,0,1,.16.82,2.08,2.08,0,0,1-.12.71,1.85,1.85,0,0,1-.35.59,2,2,0,0,1-.55.45,2.78,2.78,0,0,1-.75.28,1,1,0,0,1,.32.3L319.14,64h-.86a.44.44,0,0,1-.39-.21L316,61.23a.57.57,0,0,0-.18-.17.78.78,0,0,0-.3-.05Zm0-.71h1a2.37,2.37,0,0,0,.74-.1,1.39,1.39,0,0,0,.54-.29,1.06,1.06,0,0,0,.33-.45,1.32,1.32,0,0,0,.11-.57,1.15,1.15,0,0,0-.42-1,2.09,2.09,0,0,0-1.26-.32h-1.06Z" fill="#c34293"/><path d="M323.25,60h.37a.84.84,0,0,0,.3,0,.48.48,0,0,0,.21-.17l2.39-2.69a.56.56,0,0,1,.21-.18.53.53,0,0,1,.26-.06h.83l-2.73,3.09a1.7,1.7,0,0,1-.2.19.63.63,0,0,1-.2.13.68.68,0,0,1,.25.14,1.65,1.65,0,0,1,.22.23L328,64h-.84L327,64l-.11,0a.15.15,0,0,1-.09-.06l-.08-.09L324.25,61a.94.94,0,0,0-.1-.1l-.11-.08-.14,0h-.65V64h-1V56.83h1Z" fill="#c34293"/><path d="M35.88,81.65l-27-27,9.87-36.84L55.62,8l27,27L72.72,71.77ZM12.27,53.78l24.51,24.5,33.48-9,9-33.48L54.72,11.33l-33.48,9Z" fill="#3b4051"/><circle cx="55" cy="10" r="10" fill="#3b4051"/><path d="M54.84,12.32a2.68,2.68,0,1,1,1.9-4.57,2.68,2.68,0,0,1-1.9,4.57Z" fill="#c34293"/><circle cx="10" cy="54" r="10" fill="#3b4051"/><path d="M10.26,56.91a2.69,2.69,0,1,1,1.89-.79A2.68,2.68,0,0,1,10.26,56.91Z" fill="#c34293"/><circle cx="20" cy="19" r="10" fill="#3b4051"/><path d="M20,21.75a2.69,2.69,0,1,1,1.9-.79A2.68,2.68,0,0,1,20,21.75Z" fill="#c34293"/><circle cx="45" cy="45" r="13" fill="#3b4051"/><circle cx="71" cy="71" r="10" fill="#3b4051"/><path d="M71.49,73.22a2.68,2.68,0,1,1,1.89-.78A2.68,2.68,0,0,1,71.49,73.22Z" fill="#c34293"/><path d="M54,19.76a26.12,26.12,0,0,0-3.13,1.06c-1,.4-2,.85-2.89,1.31a49.69,49.69,0,0,0-5.34,3.06,63.22,63.22,0,0,0-9.31,7.47,53.88,53.88,0,0,0-7.67,9.12,44.21,44.21,0,0,0-3,5.36c-.22.48-.43,1-.65,1.45s-.41,1-.59,1.51a21.9,21.9,0,0,0-1,3.24l-9.29-9.29a22.26,22.26,0,0,0,3.24-1c.51-.18,1-.4,1.5-.59l1.45-.65a43.46,43.46,0,0,0,5.36-3,53.56,53.56,0,0,0,9.12-7.67,63.94,63.94,0,0,0,7.48-9.31,51.44,51.44,0,0,0,3.06-5.34c.46-.94.9-1.89,1.3-2.89a25.7,25.7,0,0,0,1.07-3.14Z" fill="#3b4051"/><circle cx="80" cy="35" r="10" fill="#3b4051"/><path d="M80.12,37.6a2.68,2.68,0,0,1,0-5.36A2.64,2.64,0,0,1,82,33a2.68,2.68,0,0,1-1.89,4.57Z" fill="#c34293"/><circle cx="36" cy="80" r="10" fill="#3b4051"/><path d="M35.54,82.18a2.68,2.68,0,1,1,1.89-.78A2.67,2.67,0,0,1,35.54,82.18Z" fill="#c34293"/><path d="M79.29,45a24,24,0,0,0-3.13,1.06c-1,.4-2,.84-2.9,1.3a50.27,50.27,0,0,0-5.33,3.06,63.41,63.41,0,0,0-9.31,7.48A53,53,0,0,0,51,67.06a42.91,42.91,0,0,0-3,5.36c-.23.48-.44,1-.65,1.45s-.41,1-.6,1.51a23,23,0,0,0-1,3.23l-9.28-9.28a23.44,23.44,0,0,0,3.23-1c.52-.18,1-.39,1.51-.59s1-.42,1.45-.65a42.91,42.91,0,0,0,5.36-3,53,53,0,0,0,9.12-7.67,63.41,63.41,0,0,0,7.48-9.31,48.53,48.53,0,0,0,3-5.33c.47-.94.91-1.9,1.31-2.9A26.12,26.12,0,0,0,70,35.75Z" fill="#3b4051"/><path d="M21.85,17.24a38.63,38.63,0,0,0,5,7.68A64.57,64.57,0,0,0,33,31.46,45.6,45.6,0,0,0,40.22,37a38.79,38.79,0,0,0,4.14,2.21c.74.32,1.48.64,2.26.92a19.47,19.47,0,0,0,2.45.73L41.65,48.2a17.67,17.67,0,0,0-.72-2.46c-.27-.78-.58-1.52-.91-2.26a38.83,38.83,0,0,0-2.19-4.15,45.51,45.51,0,0,0-5.47-7.22,65.69,65.69,0,0,0-6.52-6.18,38.75,38.75,0,0,0-7.66-5Z" fill="#c34293"/><path d="M48.91,40.94a27.16,27.16,0,0,0,1.79,4.69A42.79,42.79,0,0,0,53,49.79a50.75,50.75,0,0,0,5.64,7.31,64.94,64.94,0,0,0,6.67,6.28,39.49,39.49,0,0,0,7.84,5.11l-3.73,3.75a39.35,39.35,0,0,0-5.13-7.83A63.9,63.9,0,0,0,58,57.77a50.08,50.08,0,0,0-7.32-5.63,44,44,0,0,0-4.17-2.3,27.25,27.25,0,0,0-4.7-1.78Z" fill="#c34293"/><path d="M45.42,49.93a5.36,5.36,0,1,1,3.79-1.57A5.32,5.32,0,0,1,45.42,49.93Z" fill="#c34293"/></g></g></svg>